<svg xmlns="http://www.w3.org/2000/svg" width="1600" height="900" viewBox="0 0 1600 900">
  <rect width="1600" height="900" fill="#FAF7F2"/>
  <rect x="0" y="0" width="26" height="900" fill="#E63888"/>
  <circle cx="1450" cy="115" r="76" fill="#C7F25C"/>
  <circle cx="1494" cy="151" r="37" fill="#3D1F5C"/>
  <svg x="108" y="44" width="270" height="77" viewBox="0 0 1080 307.2">
  <title id="forgex-logo-title">ForgeX</title>
  <g fill="#E63888">
    <path d="M90,215.9V39.1h118.2v28.5h-85.7v48.9h75v28.7h-75v70.7H90z"/>
    <path d="M286.7,218.8c-12.5,0-23.9-2.9-34.3-8.8c-10.4-5.9-18.6-13.8-24.8-24c-6.2-10.1-9.3-21.7-9.3-34.6c0-13,3.1-24.5,9.3-34.6c6.2-10.1,14.4-18.1,24.7-24c10.3-5.9,21.8-8.8,34.4-8.8c12.8,0,24.4,2.9,34.6,8.8c10.3,5.9,18.5,13.8,24.6,23.9c6.1,10.1,9.1,21.6,9.1,34.8c0,13-3.1,24.5-9.3,34.6c-6.2,10.1-14.4,18.1-24.7,24C310.9,215.8,299.4,218.8,286.7,218.8z M286.7,190.3c7.1,0,13.3-1.7,18.6-5c5.3-3.3,9.5-8,12.6-13.9c3.1-5.9,4.6-12.6,4.6-20.1c0-7.4-1.5-14.1-4.6-19.9c-3.1-5.9-7.3-10.4-12.6-13.8c-5.3-3.3-11.5-5-18.6-5c-7,0-13.1,1.7-18.5,5c-5.4,3.3-9.6,7.9-12.7,13.8c-3.1,5.9-4.6,12.5-4.6,19.9c0,7.4,1.5,14.1,4.6,20.1c3.1,5.9,7.3,10.6,12.7,13.9C273.6,188.6,279.8,190.3,286.7,190.3z"/>
    <path d="M378.3,215.9V86.8h29.4v28.7l-2.4-4.3c3-9.6,7.7-16.4,14.1-20.2c6.4-3.8,14.1-5.7,23.1-5.7h7.6v27.8h-11.2c-8.9,0-16,2.7-21.4,8.1c-5.4,5.4-8.1,13-8.1,22.8v71.9H378.3z"/>
    <path d="M530,268.1c-9.7,0-18.6-1.6-26.8-4.7c-8.2-3.2-15.3-7.6-21.2-13.2c-5.9-5.6-10.2-12.2-12.9-19.8l29-10.9c1.9,6,5.7,10.9,11.3,14.6c5.6,3.7,12.5,5.6,20.5,5.6c6.3,0,11.9-1.2,16.7-3.6c4.8-2.4,8.6-5.8,11.4-10.3c2.8-4.5,4.2-9.9,4.2-16.3v-29.4l5.7,7.1c-4.4,7.8-10.3,13.6-17.7,17.6c-7.4,4-15.9,5.9-25.5,5.9c-11.9,0-22.5-2.8-32-8.3c-9.5-5.5-17-13.1-22.4-22.8c-5.5-9.7-8.2-20.5-8.2-32.5c0-12.2,2.7-23,8.2-32.5c5.5-9.5,12.9-17,22.2-22.4c9.3-5.5,19.9-8.2,31.8-8.2c9.6,0,18.1,2,25.4,6.1c7.3,4,13.4,9.8,18.3,17.4l-4,7.8V86.8h29.4v122.7c0,11.2-2.7,21.3-8.2,30.1c-5.5,8.9-12.9,15.8-22.3,20.9C553.2,265.6,542.3,268.1,530,268.1z M528.6,182c6.6,0,12.5-1.5,17.4-4.4c5-2.9,8.9-7,11.7-12.2c2.9-5.2,4.3-11.2,4.3-18c0-6.6-1.5-12.6-4.4-17.8c-2.9-5.2-6.9-9.3-11.9-12.3c-5-3-10.7-4.5-17.2-4.5s-12.3,1.5-17.6,4.5c-5.2,3-9.3,7.1-12.2,12.3c-2.9,5.2-4.4,11.2-4.4,17.8c0,6.6,1.5,12.6,4.4,17.8c2.9,5.2,7,9.3,12.1,12.3C516,180.5,521.9,182,528.6,182z"/>
    <path d="M683.1,218.8c-13.3,0-25-3-35-9c-10-6-17.8-14.2-23.4-24.4c-5.5-10.3-8.3-21.7-8.3-34.2c0-13,2.8-24.5,8.5-34.5c5.7-10,13.4-18,23-23.9c9.6-5.9,20.6-8.8,32.7-8.8c10.1,0,19,1.7,26.7,5c7.7,3.3,14.2,7.9,19.6,13.8c5.4,5.9,9.5,12.5,12.3,20.1c2.8,7.5,4.3,15.6,4.3,24.3c0,2.4-0.1,4.7-0.4,7c-0.2,2.3-0.7,4.4-1.3,6.3h-99.7v-24h82.1l-15,11.2c1.6-7.3,1.3-13.8-0.8-19.5c-2.1-5.7-5.6-10.2-10.4-13.5c-4.8-3.3-10.6-5-17.4-5c-6.5,0-12.3,1.7-17.3,5c-5.1,3.3-8.9,8.1-11.5,14.2c-2.6,6.2-3.6,13.7-3,22.5c-0.6,7.9,0.4,14.9,3.2,21c2.8,6.1,6.9,10.8,12.3,14.1c5.5,3.3,11.7,5,18.9,5c7.1,0,13.2-1.5,18.2-4.5c5-3,8.9-7,11.7-12.1l25.2,12.3c-2.5,6.2-6.5,11.6-11.9,16.4c-5.4,4.7-11.8,8.5-19.2,11.2C699.8,217.4,691.8,218.8,683.1,218.8z"/>
    <path d="M986.5,44l3.5-4.9h-60.1c-12.5,0-24.2,6.2-31.2,16.5l-27.8,41l6.5,9L986.5,44z"/>
    <polygon points="910.6,151.6 981.8,50.7 879.5,108.5"/>
    <path d="M824.2,212.4l-4.3,52.6c5.9-2.6,11.2-6.6,15.2-11.9l30.3-40.2l-11.2-21.2L824.2,212.4z"/>
    <path d="M816.5,41.5c-4.2-1.6-8.6-2.4-13.2-2.4h-60.8l6.3,9.2l4,5.5l67.6,39.3L816.5,41.5z"/>
    <path d="M745.5,266.8l-0.9,1.3H805c3.9,0,7.7-0.6,11.3-1.7l4.2-51.4L745.5,266.8z"/>
    <polygon points="825.1,158.5 751.8,258.2 820.9,210.5"/>
    <polygon points="824.5,99.4 828.7,153.7 891.5,138.4"/>
    <polygon points="891.5,142 828.7,157.3 824.6,207.9 853.7,187.8"/>
    <path d="M906.2,261.3c6.3,4.4,13.8,6.9,21.7,6.9h60c-1.1-1.5-2.2-3.1-3.3-4.6L903.7,224L906.2,261.3z"/>
    <polygon points="757.9,60.7 825.1,153.2 820.8,97.3"/>
    <path d="M980.3,257.5c-27.4-37.8-54.7-75.6-82-113.5l5.2,75.9L980.3,257.5z"/>
    <path d="M891.1,134.2c-19.1-26.5-38.2-52.9-57.3-79.4c-3.6-5-8.4-9-13.8-11.7l4,52.1L891.1,134.2z"/>
    <path d="M856.9,189.3l14.5,27.5l26,35.7c1.5,2.1,3.3,4,5.1,5.7l-7.8-114.7L856.9,189.3z"/>
  </g>
</svg>
  <text x="1440" y="265" text-anchor="middle" font-family="Arial, Helvetica, sans-serif" font-size="110" font-weight="900" fill="#3D1F5C">4</text>
  <text x="140" y="250" fill="#0B0B0F" font-family="Arial, Helvetica, sans-serif" font-size="70" font-weight="900">Map the buying</text><text x="140" y="332" fill="#0B0B0F" font-family="Arial, Helvetica, sans-serif" font-size="70" font-weight="900">committee.</text>
  <rect x="140" y="545" width="408" height="152" rx="22" fill="#FBF8F4" stroke="#0B0B0F" stroke-width="4"/><path d="M 556 621 L 586 621" stroke="#E63888" stroke-width="7"/><path d="M 571 606 L 586 621 L 571 636" fill="none" stroke="#E63888" stroke-width="7"/><text x="344" y="603" text-anchor="middle" fill="#0B0B0F" font-family="Arial, Helvetica, sans-serif" font-size="25" font-weight="800" letter-spacing="1">BUYING</text><text x="344" y="637" text-anchor="middle" fill="#0B0B0F" font-family="Arial, Helvetica, sans-serif" font-size="25" font-weight="800" letter-spacing="1">DECISION</text><rect x="596" y="545" width="408" height="152" rx="22" fill="#3D1F5C" stroke="#0B0B0F" stroke-width="4"/><path d="M 1012 621 L 1042 621" stroke="#E63888" stroke-width="7"/><path d="M 1027 606 L 1042 621 L 1027 636" fill="none" stroke="#E63888" stroke-width="7"/><text x="800" y="603" text-anchor="middle" fill="#FAF7F2" font-family="Arial, Helvetica, sans-serif" font-size="25" font-weight="800" letter-spacing="1">ROLES +</text><text x="800" y="637" text-anchor="middle" fill="#FAF7F2" font-family="Arial, Helvetica, sans-serif" font-size="25" font-weight="800" letter-spacing="1">QUESTIONS</text><rect x="1052" y="545" width="408" height="152" rx="22" fill="#E63888" stroke="#0B0B0F" stroke-width="4"/><text x="1256" y="603" text-anchor="middle" fill="#FAF7F2" font-family="Arial, Helvetica, sans-serif" font-size="25" font-weight="800" letter-spacing="1">CONTENT</text><text x="1256" y="637" text-anchor="middle" fill="#FAF7F2" font-family="Arial, Helvetica, sans-serif" font-size="25" font-weight="800" letter-spacing="1">COVERAGE MAP</text>
  <text x="140" y="831" font-family="Arial, Helvetica, sans-serif" font-size="22" font-weight="700" fill="#0B0B0F">ONE JOB. ONE SKILL. ONE USEFUL OUTPUT.</text>
  <text x="1460" y="831" text-anchor="end" font-family="Arial, Helvetica, sans-serif" font-size="18" font-weight="700" fill="#E63888">FORGEX PRACTICAL ABM SKILLS · buying-committee-mapper</text>
  </svg>